<?xml version="1.0" encoding="utf-8"?>
<!-- Generator: Adobe Illustrator 23.0.3, SVG Export Plug-In . SVG Version: 6.00 Build 0)  -->
<svg version="1.1" id="Layer_1" xmlns="http://www.w3.org/2000/svg" xmlns:xlink="http://www.w3.org/1999/xlink" x="0px" y="0px"
	 viewBox="0 0 175 175" style="enable-background:new 0 0 175 175;" xml:space="preserve">
<style type="text/css">
	.st0{fill:#FA090A;}
</style>
<g>
	<g>
		<path class="st0" d="M88.09,70.42c-9.64,0-17.48,7.84-17.48,17.48c0,9.64,7.85,17.49,17.48,17.49c9.64,0,17.48-7.85,17.48-17.49
			C105.58,78.26,97.73,70.42,88.09,70.42L88.09,70.42z M88.09,70.42c-9.64,0-17.48,7.84-17.48,17.48c0,9.64,7.85,17.49,17.48,17.49
			c9.64,0,17.48-7.85,17.48-17.49C105.58,78.26,97.73,70.42,88.09,70.42L88.09,70.42z M117.22,41.92H58.97
			c-9.3,0-16.86,7.56-16.86,16.86v58.25c0,9.3,7.56,16.86,16.86,16.86h58.25c9.3,0,16.86-7.56,16.86-16.86V58.78
			C134.08,49.48,126.52,41.92,117.22,41.92L117.22,41.92z M88.09,118.18c-16.69,0-30.28-13.58-30.28-30.28
			c0-16.69,13.58-30.28,30.28-30.28c16.69,0,30.28,13.58,30.28,30.28C118.37,104.6,104.79,118.18,88.09,118.18L88.09,118.18z
			 M119.35,63.89c-3.95,0-7.17-3.21-7.17-7.16c0-3.95,3.21-7.16,7.17-7.16c3.95,0,7.16,3.21,7.16,7.16
			C126.51,60.67,123.3,63.89,119.35,63.89L119.35,63.89z M88.09,70.42c-9.64,0-17.48,7.84-17.48,17.48
			c0,9.64,7.85,17.49,17.48,17.49c9.64,0,17.48-7.85,17.48-17.49C105.58,78.26,97.73,70.42,88.09,70.42L88.09,70.42z M117.22,41.92
			H58.97c-9.3,0-16.86,7.56-16.86,16.86v58.25c0,9.3,7.56,16.86,16.86,16.86h58.25c9.3,0,16.86-7.56,16.86-16.86V58.78
			C134.08,49.48,126.52,41.92,117.22,41.92L117.22,41.92z M88.09,118.18c-16.69,0-30.28-13.58-30.28-30.28
			c0-16.69,13.58-30.28,30.28-30.28c16.69,0,30.28,13.58,30.28,30.28C118.37,104.6,104.79,118.18,88.09,118.18L88.09,118.18z
			 M119.35,63.89c-3.95,0-7.17-3.21-7.17-7.16c0-3.95,3.21-7.16,7.17-7.16c3.95,0,7.16,3.21,7.16,7.16
			C126.51,60.67,123.3,63.89,119.35,63.89L119.35,63.89z M88.09,70.42c-9.64,0-17.48,7.84-17.48,17.48
			c0,9.64,7.85,17.49,17.48,17.49c9.64,0,17.48-7.85,17.48-17.49C105.58,78.26,97.73,70.42,88.09,70.42L88.09,70.42z M0.19,0v175.81
			H176V0H0.19z M146.87,117.03c0,16.35-13.3,29.65-29.65,29.65H58.97c-16.35,0-29.65-13.3-29.65-29.65V58.78
			c0-16.35,13.3-29.65,29.65-29.65h58.25c16.35,0,29.65,13.3,29.65,29.65V117.03z M117.22,41.92H58.97
			c-9.3,0-16.86,7.56-16.86,16.86v58.25c0,9.3,7.56,16.86,16.86,16.86h58.25c9.3,0,16.86-7.56,16.86-16.86V58.78
			C134.08,49.48,126.52,41.92,117.22,41.92L117.22,41.92z M88.09,118.18c-16.69,0-30.28-13.58-30.28-30.28
			c0-16.69,13.58-30.28,30.28-30.28c16.69,0,30.28,13.58,30.28,30.28C118.37,104.6,104.79,118.18,88.09,118.18L88.09,118.18z
			 M119.35,63.89c-3.95,0-7.17-3.21-7.17-7.16c0-3.95,3.21-7.16,7.17-7.16c3.95,0,7.16,3.21,7.16,7.16
			C126.51,60.67,123.3,63.89,119.35,63.89L119.35,63.89z M88.09,70.42c-9.64,0-17.48,7.84-17.48,17.48
			c0,9.64,7.85,17.49,17.48,17.49c9.64,0,17.48-7.85,17.48-17.49C105.58,78.26,97.73,70.42,88.09,70.42L88.09,70.42z M88.09,70.42
			c-9.64,0-17.48,7.84-17.48,17.48c0,9.64,7.85,17.49,17.48,17.49c9.64,0,17.48-7.85,17.48-17.49
			C105.58,78.26,97.73,70.42,88.09,70.42L88.09,70.42z M88.09,70.42c-9.64,0-17.48,7.84-17.48,17.48c0,9.64,7.85,17.49,17.48,17.49
			c9.64,0,17.48-7.85,17.48-17.49C105.58,78.26,97.73,70.42,88.09,70.42L88.09,70.42z M117.22,41.92H58.97
			c-9.3,0-16.86,7.56-16.86,16.86v58.25c0,9.3,7.56,16.86,16.86,16.86h58.25c9.3,0,16.86-7.56,16.86-16.86V58.78
			C134.08,49.48,126.52,41.92,117.22,41.92L117.22,41.92z M88.09,118.18c-16.69,0-30.28-13.58-30.28-30.28
			c0-16.69,13.58-30.28,30.28-30.28c16.69,0,30.28,13.58,30.28,30.28C118.37,104.6,104.79,118.18,88.09,118.18L88.09,118.18z
			 M119.35,63.89c-3.95,0-7.17-3.21-7.17-7.16c0-3.95,3.21-7.16,7.17-7.16c3.95,0,7.16,3.21,7.16,7.16
			C126.51,60.67,123.3,63.89,119.35,63.89L119.35,63.89z M88.09,70.42c-9.64,0-17.48,7.84-17.48,17.48
			c0,9.64,7.85,17.49,17.48,17.49c9.64,0,17.48-7.85,17.48-17.49C105.58,78.26,97.73,70.42,88.09,70.42L88.09,70.42z M88.09,70.42
			c-9.64,0-17.48,7.84-17.48,17.48c0,9.64,7.85,17.49,17.48,17.49c9.64,0,17.48-7.85,17.48-17.49
			C105.58,78.26,97.73,70.42,88.09,70.42L88.09,70.42z M88.09,70.42c-9.64,0-17.48,7.84-17.48,17.48c0,9.64,7.85,17.49,17.48,17.49
			c9.64,0,17.48-7.85,17.48-17.49C105.58,78.26,97.73,70.42,88.09,70.42L88.09,70.42z M117.22,41.92H58.97
			c-9.3,0-16.86,7.56-16.86,16.86v58.25c0,9.3,7.56,16.86,16.86,16.86h58.25c9.3,0,16.86-7.56,16.86-16.86V58.78
			C134.08,49.48,126.52,41.92,117.22,41.92L117.22,41.92z M88.09,118.18c-16.69,0-30.28-13.58-30.28-30.28
			c0-16.69,13.58-30.28,30.28-30.28c16.69,0,30.28,13.58,30.28,30.28C118.37,104.6,104.79,118.18,88.09,118.18L88.09,118.18z
			 M119.35,63.89c-3.95,0-7.17-3.21-7.17-7.16c0-3.95,3.21-7.16,7.17-7.16c3.95,0,7.16,3.21,7.16,7.16
			C126.51,60.67,123.3,63.89,119.35,63.89L119.35,63.89z M88.09,70.42c-9.64,0-17.48,7.84-17.48,17.48
			c0,9.64,7.85,17.49,17.48,17.49c9.64,0,17.48-7.85,17.48-17.49C105.58,78.26,97.73,70.42,88.09,70.42L88.09,70.42z M88.09,70.42"
			/>
	</g>
</g>
</svg>
