<?xml version="1.0" encoding="utf-8"?>
<!-- Generator: Adobe Illustrator 23.0.3, SVG Export Plug-In . SVG Version: 6.00 Build 0)  -->
<svg version="1.1" id="Layer_1" xmlns="http://www.w3.org/2000/svg" xmlns:xlink="http://www.w3.org/1999/xlink" x="0px" y="0px"
	 viewBox="0 0 175 175" style="enable-background:new 0 0 175 175;" xml:space="preserve">
<style type="text/css">
	.st0{fill:#FA090A;}
</style>
<g>
	<g>
		<path class="st0" d="M0,0v175.81h175.81V0H0z M139.37,63.25c0.04,1.03,0.06,2.07,0.06,3.11c0,41.79-33.88,75.68-75.68,75.68
			c-14.88,0-28.76-4.29-40.46-11.71l-0.01,0c22.88,3.42,39-11.14,39-11.14c-20.38-1.58-24.41-18.55-24.41-18.55
			c7.2,1.22,11.71-0.49,11.71-0.49C26.65,94.77,28.6,73.78,28.6,73.78c5.31,3.17,11.47,3.42,11.47,3.42
			C19.81,59.38,32.5,42.05,32.5,42.05c21.24,25.72,52.46,27.47,54.51,27.55c-0.45-1.93-0.69-3.95-0.69-6.01
			c0-14.66,11.89-26.54,26.56-26.54c7.65,0,14.54,3.23,19.38,8.4c1.34-0.38,2.65-0.78,3.89-1.2c7.52-2.51,12.89-5.37,12.89-5.37
			c-1.3,7.76-10.87,14.28-11.55,14.74c-0.02,0.02-0.04,0.02-0.04,0.02c0.01,0,0.03,0,0.05,0c7.43-0.74,15.03-3.9,15.03-3.9
			C150.23,54.56,140.88,62.05,139.37,63.25z"/>
	</g>
</g>
</svg>
